HIERARCHY
ROOT RootJoint
{
    OFFSET   0.000000   0.000000   0.000000
    CHANNELS 6 Xposition Yposition Zposition Xrotation Yrotation Zrotation
    JOINT pelvis_lowerback
    {
        OFFSET   0.000000   0.093605   0.000000
        CHANNELS 3 Xrotation Yrotation Zrotation
        JOINT lowerback_torso
        {
            OFFSET   0.000000   0.100000   0.000000
            CHANNELS 3 Xrotation Yrotation Zrotation
            JOINT torso_head
            {
                OFFSET   0.000000   0.282350   0.000000
                CHANNELS 3 Xrotation Yrotation Zrotation
                End Site
                {
                    OFFSET   0.000000   0.192650   0.000000
                }
            }
            JOINT rTorso_Clavicle
            {
                OFFSET  -0.001000   0.157500   0.000000
                CHANNELS 3 Xrotation Yrotation Zrotation
                JOINT rShoulder
                {
                    OFFSET  -0.117647   0.000000   0.000000
                    CHANNELS 3 Xrotation Yrotation Zrotation
                    JOINT rElbow
                    {
                        OFFSET  -0.245000   0.000000   0.000000
                        CHANNELS 3 Xrotation Yrotation Zrotation
                        JOINT rWrist
                        {
                            OFFSET  -0.240000   0.000000   0.000000
                            CHANNELS 3 Xrotation Yrotation Zrotation
                            End Site
                            {
                                OFFSET  -0.116353  -0.002500   0.000000
                            }
                        }
                    }
                }
            }
            JOINT lTorso_Clavicle
            {
                OFFSET   0.001000   0.157500   0.000000
                CHANNELS 3 Xrotation Yrotation Zrotation
                JOINT lShoulder
                {
                    OFFSET   0.117647   0.000000   0.000000
                    CHANNELS 3 Xrotation Yrotation Zrotation
                    JOINT lElbow
                    {
                        OFFSET   0.245000   0.000000   0.000000
                        CHANNELS 3 Xrotation Yrotation Zrotation
                        JOINT lWrist
                        {
                            OFFSET   0.240000   0.000000   0.000000
                            CHANNELS 3 Xrotation Yrotation Zrotation
                            End Site
                            {
                                OFFSET   0.116353  -0.002500   0.000000
                            }
                        }
                    }
                }
            }
        }
    }
    JOINT rHip
    {
        OFFSET  -0.100000  -0.051395   0.000000
        CHANNELS 3 Xrotation Yrotation Zrotation
        JOINT rKnee
        {
            OFFSET   0.000000  -0.410000   0.000000
            CHANNELS 3 Xrotation Yrotation Zrotation
            JOINT rAnkle
            {
                OFFSET   0.000000  -0.390000   0.000000
                CHANNELS 3 Xrotation Yrotation Zrotation
                JOINT rToeJoint
                {
                    OFFSET   0.000000  -0.050000   0.130000
                    CHANNELS 3 Xrotation Yrotation Zrotation
                    End Site
                    {
                        OFFSET  -0.010000   0.002000   0.060000
                    }
                }
            }
        }
    }
    JOINT lHip
    {
        OFFSET   0.100000  -0.051395   0.000000
        CHANNELS 3 Xrotation Yrotation Zrotation
        JOINT lKnee
        {
            OFFSET   0.000000  -0.410000   0.000000
            CHANNELS 3 Xrotation Yrotation Zrotation
            JOINT lAnkle
            {
                OFFSET   0.000000  -0.390000   0.000000
                CHANNELS 3 Xrotation Yrotation Zrotation
                JOINT lToeJoint
                {
                    OFFSET   0.000000  -0.050000   0.130000
                    CHANNELS 3 Xrotation Yrotation Zrotation
                    End Site
                    {
                        OFFSET   0.010000   0.002000   0.060000
                    }
                }
            }
        }
    }
}
MOTION
Frames: 12
Frame Time:   0.008333
 -2.319832   0.920558   4.587315  -0.060778  -5.613113   0.922072   2.338389  -0.809986  -0.370968  -3.282726  -0.110526   1.273235  -1.562538   3.682525  -0.310086   1.053375  -1.825227  -3.745798   4.427391  11.847950  34.719363 179.999410  75.249534 -179.999287  -5.649134   6.904646   4.615131  -6.021719   4.423108   8.119859 -37.830292  14.779044 -22.695584  -0.005712 -77.594727  -0.006496 -11.422938  -6.269548  13.037208  -6.154738   2.890879  -2.829924  23.875422   0.007203  -0.011172 -13.501468  -0.128739   2.575821  -0.838593  -0.002094   0.004748   0.162203  -5.850019   2.822000   1.943392  -0.000033   0.000010  -0.921966   0.494796  -2.534884  -2.060099  -0.000620  -0.000120
 -2.319621   0.920850   4.587340  -0.037530  -5.536729   1.077013   2.308499  -0.787634  -0.411700  -3.247587  -0.137176   1.140586  -1.472119   3.579123  -0.420971   1.027352  -1.775925  -3.731357   4.388728  11.694950  34.750970 179.999356  75.346953 -179.999260  -5.580789   6.931354   4.517368  -6.018678   4.419815   8.070519 -37.652500  14.755281 -22.589407  -0.005105 -77.491998  -0.005891 -11.313739  -6.228500  12.976104  -5.863565   2.887732  -2.763005  23.002845   0.007398  -0.010067 -13.106152  -0.094730   2.369396  -0.636999  -0.001699   0.004076   0.020512  -5.877817   2.645577   2.062252  -0.000012   0.000063  -0.624393   0.454785  -2.687161  -2.505506  -0.001126  -0.000232
 -2.319449   0.921198   4.587297  -0.016949  -5.482257   1.236868   2.279536  -0.742316  -0.444988  -3.212941  -0.143570   1.007562  -1.387783   3.479514  -0.528471   1.005929  -1.722055  -3.710779   4.354165  11.555698  34.785239 179.999376  75.443441 -179.999322  -5.513778   6.929866   4.424704  -6.010640   4.429850   8.010531 -37.478502  14.743928 -22.494683  -0.004509 -77.396532  -0.005294 -11.206029  -6.195782  12.903519  -5.568927   2.879244  -2.715707  22.157947   0.007467  -0.008891 -12.735248  -0.067637   2.175276  -0.430449  -0.001387   0.003473  -0.135112  -5.894269   2.463728   2.205381   0.000007   0.000103  -0.298512   0.421270  -2.823054  -3.014030  -0.001538  -0.000341
 -2.319341   0.921560   4.587188   0.000445  -5.440925   1.389159   2.251998  -0.684755  -0.469784  -3.179771  -0.134605   0.884859  -1.308958   3.386548  -0.628148   0.985944  -1.666781  -3.689981   4.321412  11.428692  34.818385 179.999433  75.534082 -179.999420  -5.449456   6.921369   4.341766  -6.001363   4.448672   7.949095 -37.313072  14.740784 -22.406212  -0.003930 -77.305751  -0.004714 -11.104445  -6.156636  12.834538  -5.280356   2.870133  -2.670856  21.369832   0.007374  -0.007762 -12.389288  -0.043744   1.993821  -0.241888  -0.001142   0.002937  -0.291566  -5.908963   2.293937   2.354209   0.000014   0.000122   0.028807   0.388385  -2.944647  -3.532577  -0.001791  -0.000388
 -2.319301   0.921914   4.587016   0.015438  -5.404255   1.532854   2.224843  -0.620945  -0.487885  -3.149170  -0.115950   0.773382  -1.235252   3.299792  -0.720194   0.966756  -1.611924  -3.670243   4.290092  11.312169  34.849660 179.999504  75.618503 -179.999527  -5.388038   6.913273   4.265952  -5.992303   4.472887   7.890415 -37.157757  14.742283 -22.322036  -0.003373 -77.219837  -0.004155 -11.008500  -6.112375  12.772975  -4.999433   2.860538  -2.627186  20.639095   0.007140  -0.006747 -12.066389  -0.022531   1.824313  -0.069986  -0.000947   0.002477  -0.446033  -5.922429   2.137601   2.501632   0.000014   0.000132   0.348513   0.356212  -3.055158  -4.040336  -0.001911  -0.000413
 -2.319330   0.922246   4.586780   0.028533  -5.366785   1.668692   2.197601  -0.554393  -0.500745  -3.121729  -0.091408   0.672367  -1.166461   3.218800  -0.805375   0.948253  -1.558494  -3.651821   4.260169  11.204783  34.878936 179.999579  75.697019 -179.999630  -5.329431   6.907141   4.195138  -5.984074   4.500057   7.836180 -37.012871  14.746224 -22.241515  -0.002846 -77.139019  -0.003623 -10.917254  -6.066364  12.719004  -4.726793   2.850822  -2.585679  19.962209   0.006797  -0.005871 -11.764937  -0.003658   1.665995   0.086965  -0.000791   0.002090  -0.597711  -5.934450   1.993739   2.644250   0.000007   0.000141   0.656309   0.325063  -3.156441  -4.526544  -0.001928  -0.000441
 -2.319428   0.922549   4.586479   0.039853  -5.325249   1.797543   2.170265  -0.487238  -0.509372  -3.097527  -0.063422   0.580877  -1.102366   3.143184  -0.884370   0.930437  -1.506990  -3.634677   4.231650  11.105541  34.906270 179.999651  75.770055 -179.999725  -5.273475   6.902963   4.128130  -5.976886   4.528539   7.786848 -36.878149  14.751315 -22.164501  -0.002358 -77.063323  -0.003125 -10.830005  -6.020998  12.671819  -4.462927   2.841309  -2.547353  19.335226   0.006377  -0.005134 -11.483479   0.013157   1.518142   0.230428  -0.000664   0.001770  -0.746233  -5.944931   1.861240   2.780297  -0.000003   0.000153   0.950019   0.295112  -3.249806  -4.985215  -0.001870  -0.000480
 -2.319507   0.922918   4.586027   0.101818  -5.257328   1.964694   2.121679  -0.411072  -0.521094  -3.100060  -0.049581   0.455845  -1.038917   2.987445  -0.964150   0.923068  -1.448276  -3.599040   4.218171  10.992795  34.909431 179.999826  75.892096 -179.999939  -5.206308   6.955289   4.044470  -5.958069   4.605526   7.682148 -36.763854  14.740996 -22.080236  -0.001866 -77.161767  -0.002290 -10.737870  -5.946382  12.659261  -4.234609   2.684000  -2.573433  18.609981   0.006270  -0.003803 -11.099334  -0.111972   1.290845   0.474814  -0.000396   0.001005  -0.961622  -5.929362   1.699946   2.885587  -0.000013   0.000199   1.371931   0.216916  -3.428389  -5.574823  -0.002331  -0.000629
 -2.319637   0.923304   4.585452   0.164782  -5.217926   2.138017   2.086589  -0.316424  -0.532558  -3.100862  -0.018294   0.329776  -0.979711   2.839053  -1.041008   0.915322  -1.388265  -3.567647   4.204910  10.886852  34.909960 -179.999946  76.012570 179.999799  -5.139288   6.976067   3.956330  -5.940850   4.692565   7.574811 -36.655607  14.739193 -22.001527  -0.001478 -77.264293  -0.001612 -10.635008  -5.942013  12.657173  -4.027535   2.531556  -2.610214  17.912702   0.006119  -0.002580 -10.740890  -0.233088   1.078574   0.707844  -0.000211   0.000365  -1.182316  -5.930579   1.542222   2.985795  -0.000031   0.000193   1.817937   0.120703  -3.591643  -5.029126  -0.001195  -0.000578
 -2.319832   0.923636   4.584774   0.223676  -5.169141   2.298471   2.060527  -0.224758  -0.532655  -3.096096   0.016394   0.213445  -0.923102   2.700271  -1.112358   0.906357  -1.331471  -3.545186   4.191397  10.787186  34.906930 -179.999709  76.125822 179.999540  -5.074566   6.986669   3.866430  -5.924361   4.779017   7.473848 -36.553737  14.741012 -21.927290  -0.001176 -77.360562  -0.001081 -10.533800  -5.949778  12.660217  -3.832509   2.386095  -2.636697  17.258576   0.005866  -0.001709 -10.407192  -0.347721   0.881266   0.919470  -0.000093  -0.000067  -1.398202  -5.918287   1.397393   3.080544  -0.000044   0.000204   2.230199   0.044427  -3.740147  -5.819147  -0.001813  -0.000617
 -2.320098   0.923915   4.583999   0.277817  -5.106325   2.452198   2.041757  -0.137404  -0.530457  -3.087252   0.051076   0.106440  -0.869291   2.570656  -1.178150   0.897384  -1.278221  -3.526001   4.178371  10.693842  34.902944 -179.999485  76.231808 179.999299  -5.012267   6.993848   3.778303  -5.908968   4.861793   7.379923 -36.458699  14.743868 -21.856946  -0.000948 -77.450200  -0.000677 -10.436442  -5.958202  12.665405  -3.647968   2.249731  -2.659540  16.649137   0.005534  -0.001144 -10.096133  -0.455827   0.697862   1.112747  -0.000020  -0.000334  -1.609155  -5.904864   1.262054   3.166809  -0.000054   0.000219   2.617723  -0.027332  -3.877545  -6.512152  -0.002114  -0.000748
 -2.320436   0.924222   4.583115   0.330586  -5.068644   2.580897   2.030103  -0.039206  -0.511049  -3.076287   0.096545   0.015113  -0.818846   2.450158  -1.238799   0.888665  -1.224009  -3.504357   4.165496  10.608577  34.899770 -179.999299  76.332319 179.999090  -4.952021   6.995617   3.696892  -5.894058   4.945685   7.286277 -36.368602  14.751565 -21.791395  -0.000761 -77.533708  -0.000364 -10.342555  -5.967672  12.675471  -3.480380   2.087214  -2.718961  16.080744   0.004968  -0.000375  -9.858440  -0.615452   0.493236   0.738606  -0.000374   0.000636  -1.808732  -5.879768   1.148725   3.241499  -0.000058   0.000215   2.970537  -0.076318  -3.888927  -7.112905  -0.001622  -0.000786
